<svg width="167" height="9" viewBox="0 0 167 9" fill="none" xmlns="http://www.w3.org/2000/svg">
<path d="M2 6.40558C5.8925 6.30193 9.88377 4.25043 13.5067 3.53379C18.546 2.53699 23.37 2 28.8262 2C31.9355 2 35.0448 2 38.1541 2C40.2661 2 43.9873 3.22728 45.7799 3.76223C52.4671 5.7579 60.1571 4.69337 67.5677 4.64335C72.2749 4.61157 76.8664 4.44889 81.5255 4.34964C84.5092 4.28608 87.1618 3.46853 90.2406 3.46853C92.5973 3.46853 93.2123 3.791 95.279 4.1212C99.0701 4.72689 102.272 4.96124 106.309 4.93705C112.168 4.90195 117.756 3.85661 123.467 3.76223C125.64 3.72632 126.358 4.17368 128.233 4.57808C131.877 5.36392 136.212 5.37907 139.74 6.40558C141.866 7.02442 143.828 7.01472 146.276 6.99299C152.526 6.93751 158.659 6.11187 165 6.11187" stroke="#5D5FEF" stroke-width="3" stroke-linecap="round"/>
</svg>
