<svg width="37" height="164" viewBox="0 0 37 164" fill="none" xmlns="http://www.w3.org/2000/svg">
<path d="M9.34896 3.09805C11.7273 2.36626 27.5803 0.124578 24.043 5.43044C20.3585 10.9572 15.1849 15.389 11.4481 20.9408C9.50802 23.8233 2.12439 30.1186 2.00193 33.3025C1.85326 37.1678 10.3508 38.5536 13.0225 39.3667C14.9153 39.9428 20.8943 41.6429 20.8943 43.565C20.8943 48.8924 19.0069 53.7087 15.6464 57.9093C10.1513 64.7782 -1.60895 72.0661 12.0312 76.9766C15.8446 78.3494 18.3758 78.332 21.4191 80.7667C25.058 83.6779 14.9627 92.0543 13.6056 93.8864C9.87903 98.9172 -0.670089 114.551 8.76586 119.135C17.0398 123.153 43.6698 125.322 31.7399 140.593C25.262 148.884 13.778 147.84 5.85037 153.654C-1.40025 158.971 24.178 161.328 26.1422 161.584" stroke="#FCDDEC" stroke-width="3" stroke-linecap="round"/>
</svg>
