<svg width="112" height="52" viewBox="0 0 112 52" fill="none" xmlns="http://www.w3.org/2000/svg">
<path d="M66.8046 2.22943C60.5465 6.476 55.6504 15.6722 47.4909 16.1017C41.333 16.4258 35.161 14.4799 28.9834 14.3215C25.2709 14.2263 25.0054 8.35378 24.5497 5.75627C23.5157 -0.137348 25.5464 6.26461 25.6581 8.27544C25.8672 12.0396 25.6917 15.8592 25.6917 19.6285C25.6917 23.0466 26.1507 27.5256 24.4489 30.6457C21.6676 35.7447 17.2126 42.6171 10.5767 42.7377C7.87043 42.7869 4.67412 41.6995 3.08631 39.3788C1.64317 37.2696 1.8933 34.862 4.665 34.4076C14.9816 32.7164 27.4055 35.7364 37.0447 39.1101C45.9313 42.2204 39.6258 46.6123 33.6187 48.4478C32.4632 48.8009 31.1486 49.0406 30.0918 49.657C29.8317 49.8088 36.9871 49.8727 37.4478 49.8586C61.5331 49.1203 85.637 49.3883 109.731 49.3883" stroke="#FCDDEC" stroke-width="3" stroke-linecap="round"/>
</svg>
