<svg width="228" height="9" viewBox="0 0 228 9" fill="none" xmlns="http://www.w3.org/2000/svg">
<path d="M2 6.40558C7.3492 6.30193 12.8341 4.25043 17.8129 3.53379C24.7381 2.53699 31.3673 2 38.8655 2C43.1384 2 47.4113 2 51.6842 2C54.5865 2 59.7004 3.22728 62.1637 3.76223C71.3535 5.7579 81.9214 4.69337 92.1053 4.64335C98.5741 4.61157 104.884 4.44889 111.287 4.34964C115.387 4.28608 119.032 3.46853 123.263 3.46853C126.502 3.46853 127.347 3.791 130.187 4.1212C135.397 4.72689 139.797 4.96124 145.345 4.93705C153.397 4.90195 161.076 3.85661 168.924 3.76223C171.91 3.72632 172.897 4.17368 175.474 4.57808C180.481 5.36392 186.439 5.37907 191.287 6.40558C194.209 7.02442 196.905 7.01472 200.269 6.99299C208.858 6.93751 217.287 6.11187 226 6.11187" stroke="#5D5FEF" stroke-width="3" stroke-linecap="round"/>
</svg>
