<svg width="54" height="56" viewBox="0 0 54 56" fill="none" xmlns="http://www.w3.org/2000/svg">
<path d="M2.1969 42.7413C4.68068 43.0518 8.80072 50.6247 10.9646 52.3952C17.3838 57.6472 30.1383 50.7672 34.936 46.0992C37.1301 43.9644 39.3552 42.1504 39.9261 39.0104C40.2429 37.2682 39.2322 35.6976 41.1853 35.1395C43.0707 34.6009 49.192 42.0072 50.2329 39.1969C51.7216 35.1774 53.6556 25.6289 50.4661 21.8014C49.0297 20.0778 49.0138 17.9509 46.6885 16.9045C44.7117 16.015 41.3104 16.718 39.1333 16.718C33.0105 16.718 47.9806 7.21806 43.2373 6.69104C38.4346 6.15739 31.5781 8.6462 31.5781 2.44708" stroke="#FFFAFA" stroke-width="3" stroke-linecap="round"/>
</svg>
