<svg width="86" height="9" viewBox="0 0 86 9" fill="none" xmlns="http://www.w3.org/2000/svg">
<path d="M2.10327 6.75239C4.06786 6.64325 6.0823 4.48297 7.91083 3.72834C10.4542 2.67868 12.8889 2.11322 15.6428 2.11322C17.2121 2.11322 18.7814 2.11322 20.3507 2.11322C21.4166 2.11322 23.2948 3.40558 24.1995 3.96889C27.5746 6.07037 31.4558 4.9494 35.196 4.89672C37.5718 4.86326 39.8892 4.69195 42.2407 4.58745C43.7466 4.52052 45.0854 3.65961 46.6393 3.65961C47.8288 3.65961 48.1391 3.99919 49.1823 4.3469C51.0957 4.9847 52.7116 5.23147 54.7493 5.206C57.7065 5.16904 60.5269 4.06828 63.4091 3.96889C64.5057 3.93107 64.8682 4.40215 65.8146 4.82799C67.6535 5.6555 69.8417 5.67145 71.6221 6.75239C72.6954 7.40404 73.6854 7.39383 74.9211 7.37095C78.0756 7.31253 81.1711 6.44311 84.3712 6.44311" stroke="#5D5FEF" stroke-width="3" stroke-linecap="round"/>
</svg>
