<svg width="123" height="116" viewBox="0 0 123 116" fill="none" xmlns="http://www.w3.org/2000/svg">
<path d="M2.14966 9.66439C17.1075 4.97173 33.136 2.95376 48.7711 2.47635C60.4809 2.1188 73.1339 1.38705 84.6777 3.71914C95.101 5.82485 106.518 10.0062 113.732 18.1288C120.986 26.2968 121.324 36.8668 119.913 47.2168C118.901 54.6332 116.244 61.9301 113.06 68.6802C110.275 74.585 107.757 81.1399 103.387 86.1128C96.2046 94.2856 85 100.5 76.5 106.5" stroke="#98DFAF" stroke-width="3" stroke-linecap="round"/>
<path d="M80.5244 88.121C76.4201 94.785 72.355 101.549 67.2026 107.477C66.8814 107.847 62.3818 113.006 62.9898 113.227C66.8952 114.648 72.0049 113.256 75.8276 112.402C86.9511 109.918 98.0694 107.394 109.217 105.029" stroke="#98DFAF" stroke-width="3" stroke-linecap="round"/>
</svg>
