<svg width="143" height="9" viewBox="0 0 143 9" fill="none" xmlns="http://www.w3.org/2000/svg">
<path d="M2 6.40558C5.31937 6.30193 8.72297 4.25043 11.8124 3.53379C16.1098 2.53699 20.2235 2 24.8764 2C27.5278 2 30.1793 2 32.8308 2C34.6318 2 37.8051 3.22728 39.3338 3.76223C45.0363 5.7579 51.5941 4.69337 57.9135 4.64335C61.9277 4.61157 65.8432 4.44889 69.8162 4.34964C72.3606 4.28608 74.6226 3.46853 77.2481 3.46853C79.2578 3.46853 79.7822 3.791 81.5447 4.1212C84.7776 4.72689 87.5079 4.96124 90.9507 4.93705C95.9473 4.90195 100.713 3.85661 105.582 3.76223C107.435 3.72632 108.048 4.17368 109.647 4.57808C112.754 5.36392 116.451 5.37907 119.459 6.40558C121.273 7.02442 122.945 7.01472 125.033 6.99299C130.363 6.93751 135.593 6.11187 141 6.11187" stroke="#5D5FEF" stroke-width="3" stroke-linecap="round"/>
</svg>
