<svg width="8" height="14" viewBox="0 0 8 14" fill="none" xmlns="http://www.w3.org/2000/svg">
<path fill-rule="evenodd" clip-rule="evenodd" d="M0.751399 0.6268C0.848331 0.534408 0.979945 0.482483 1.1172 0.482483C1.25445 0.482483 1.38607 0.534408 1.483 0.6268L7.683 6.52154C7.78018 6.6137 7.83479 6.73883 7.83479 6.86933C7.83479 6.99982 7.78018 7.12496 7.683 7.21712L1.483 13.1119C1.281 13.3039 0.953499 13.3039 0.751462 13.1119C0.549427 12.9199 0.549342 12.6085 0.751273 12.4164L6.58663 6.86933L0.751399 1.32238C0.654223 1.23022 0.599609 1.10509 0.599609 0.974589C0.599609 0.844092 0.654223 0.718958 0.7514 0.6268H0.751399Z" fill="#EEEEEE"/>
</svg>
