<svg width="18" height="16" viewBox="0 0 18 16" fill="none" xmlns="http://www.w3.org/2000/svg">
<mask id="mask0_68_199" style="mask-type:luminance" maskUnits="userSpaceOnUse" x="0" y="0" width="18" height="16">
<rect width="17.7778" height="16" fill="white"/>
</mask>
<g mask="url(#mask0_68_199)">
<path fill-rule="evenodd" clip-rule="evenodd" d="M17.7778 8C17.7778 8 14.4444 2.5 8.88889 2.5C3.33333 2.5 0 8 0 8C0 8 3.33333 13.5 8.88889 13.5C14.4444 13.5 17.7778 8 17.7778 8ZM1.30334 8C1.84058 8.73488 2.4585 9.41931 3.14779 10.043C4.57778 11.332 6.53334 12.5 8.88889 12.5C11.2444 12.5 13.1989 11.332 14.6311 10.043C15.3204 9.41931 15.9383 8.73488 16.4756 8C15.9383 7.26512 15.3204 6.58068 14.6311 5.957C13.1989 4.668 11.2433 3.5 8.88889 3.5C6.53334 3.5 4.57889 4.668 3.14667 5.957C2.45738 6.58069 1.83946 7.26513 1.30222 8.00001L1.30334 8Z" fill="#BEBEBE"/>
<path fill-rule="evenodd" clip-rule="evenodd" d="M8.88889 5.5C7.35477 5.5 6.11112 6.61928 6.11111 7.99999C6.11111 9.3807 7.35475 10.5 8.88888 10.5C10.423 10.5 11.6667 9.38072 11.6667 8.00001C11.6667 6.6193 10.423 5.50001 8.8889 5.5H8.88889ZM5 8C5 6.74957 5.74122 5.59413 6.94444 4.96891C8.14767 4.3437 9.63011 4.3437 10.8333 4.96891C12.0366 5.59412 12.7778 6.74957 12.7778 8C12.7778 9.25043 12.0366 10.4059 10.8333 11.0311C9.63011 11.6563 8.14767 11.6563 6.94445 11.0311C5.74122 10.4059 5 9.25043 5 8V8Z" fill="#BEBEBE"/>
</g>
</svg>
