<svg width="52" height="38" viewBox="0 0 52 38" fill="none" xmlns="http://www.w3.org/2000/svg">
<path fill-rule="evenodd" clip-rule="evenodd" d="M12.4695 26.5764L10.9234 20.9954C10.4965 19.4542 10.7375 18.0029 11.6464 16.6414C12.5554 15.2799 13.866 14.4071 15.5784 14.0228L39.6078 8.63074C41.3202 8.24649 42.9328 8.46339 44.4456 9.28144C45.9583 10.0995 46.9282 11.2791 47.3551 12.8203L50.8339 25.3776C51.2608 26.9187 51.0198 28.37 50.1109 29.7315C49.2019 31.093 47.8912 31.9658 46.1788 32.3501L22.1494 37.7422C20.437 38.1264 18.8245 37.9095 17.3117 37.0915C15.799 36.2734 14.8291 35.0938 14.4022 33.5527L12.4695 26.5764Z" fill="#CEEAF7"/>
<g style="mix-blend-mode:multiply">
<path fill-rule="evenodd" clip-rule="evenodd" d="M2.08429 18.7331L0.538173 13.1521C0.111225 11.6109 0.352225 10.1596 1.26117 8.79815C2.17012 7.43668 3.4808 6.56382 5.19319 6.17956L29.2226 0.78748C30.935 0.403227 32.5476 0.620128 34.0603 1.43818C35.5731 2.25624 36.5429 3.43584 36.9698 4.977L40.4486 17.5343C40.8756 19.0755 40.6346 20.5268 39.7256 21.8882C38.8167 23.2497 37.506 24.1226 35.7936 24.5068L11.7642 29.8989C10.0518 30.2832 8.43922 30.0663 6.92648 29.2482C5.41373 28.4302 4.44388 27.2506 4.01694 25.7094L2.08429 18.7331Z" fill="#2F3538"/>
</g>
</svg>
