<svg width="644" height="841" viewBox="0 0 644 841" fill="none" xmlns="http://www.w3.org/2000/svg">
<path fill-rule="evenodd" clip-rule="evenodd" d="M332.334 70C332.334 50.67 339.928 34.1709 355.115 20.5025C370.302 6.83417 388.634 0 410.112 0C431.59 0 449.922 6.83417 465.109 20.5025C480.296 34.1709 487.89 50.67 487.89 70C487.89 89.33 480.296 105.829 465.109 119.497C449.922 133.166 431.59 140 410.112 140C388.634 140 370.302 133.166 355.115 119.497C339.928 105.829 332.334 89.33 332.334 70Z" fill="#2F3538"/>
<path fill-rule="evenodd" clip-rule="evenodd" d="M332.334 491C332.334 471.67 339.928 455.171 355.115 441.503C370.302 427.834 388.634 421 410.112 421C431.59 421 449.922 427.834 465.109 441.503C480.296 455.171 487.89 471.67 487.89 491C487.89 510.33 480.296 526.829 465.109 540.497C449.922 554.166 431.59 561 410.112 561C388.634 561 370.302 554.166 355.115 540.497C339.928 526.829 332.334 510.33 332.334 491Z" fill="#2F3538"/>
<path fill-rule="evenodd" clip-rule="evenodd" d="M565.667 0H643.445V140H487.889V70C487.889 31.3401 522.711 0 565.667 0Z" fill="#F6F6F6"/>
<path fill-rule="evenodd" clip-rule="evenodd" d="M565.667 421H643.445V561H487.889V491C487.889 452.34 522.711 421 565.667 421Z" fill="#F6F6F6"/>
<path fill-rule="evenodd" clip-rule="evenodd" d="M564.556 280C607.512 280 642.334 311.34 642.334 350V420H486.778V350C486.778 311.34 521.601 280 564.556 280Z" fill="#CEEAF7"/>
<path fill-rule="evenodd" clip-rule="evenodd" d="M564.556 701C607.512 701 642.334 732.34 642.334 771V841H486.778V771C486.778 732.34 521.601 701 564.556 701Z" fill="#CEEAF7"/>
<path fill-rule="evenodd" clip-rule="evenodd" d="M331.223 280H409C451.956 280 486.778 311.34 486.778 350V420H409C366.045 420 331.223 388.66 331.223 350V280Z" fill="#F6F6F6"/>
<path fill-rule="evenodd" clip-rule="evenodd" d="M331.223 701H409C451.956 701 486.778 732.34 486.778 771V841H409C366.045 841 331.223 809.66 331.223 771V701Z" fill="#F6F6F6"/>
<path fill-rule="evenodd" clip-rule="evenodd" d="M487.889 140H643.445V280H565.667C522.711 280 487.889 248.66 487.889 210V140Z" fill="#2F3538"/>
<path fill-rule="evenodd" clip-rule="evenodd" d="M487.889 561H643.445V701H565.667C522.711 701 487.889 669.66 487.889 631V561Z" fill="#2F3538"/>
<path fill-rule="evenodd" clip-rule="evenodd" d="M332.334 140H487.89V210C487.89 248.66 453.067 280 410.112 280H332.334V140Z" fill="#CEEAF7"/>
<path fill-rule="evenodd" clip-rule="evenodd" d="M332.334 561H487.89V631C487.89 669.66 453.067 701 410.112 701H332.334V561Z" fill="#CEEAF7"/>
<path fill-rule="evenodd" clip-rule="evenodd" d="M155.667 70C155.667 50.67 163.261 34.1709 178.448 20.5025C193.635 6.83417 211.967 0 233.445 0C254.923 0 273.255 6.83417 288.442 20.5025C303.629 34.1709 311.223 50.67 311.223 70C311.223 89.33 303.629 105.829 288.442 119.497C273.255 133.166 254.923 140 233.445 140C211.967 140 193.635 133.166 178.448 119.497C163.261 105.829 155.667 89.33 155.667 70Z" fill="#2F3538"/>
<path fill-rule="evenodd" clip-rule="evenodd" d="M155.667 491C155.667 471.67 163.261 455.171 178.448 441.503C193.635 427.834 211.967 421 233.445 421C254.923 421 273.255 427.834 288.442 441.503C303.629 455.171 311.223 471.67 311.223 491C311.223 510.33 303.629 526.829 288.442 540.497C273.255 554.166 254.923 561 233.445 561C211.967 561 193.635 554.166 178.448 540.497C163.261 526.829 155.667 510.33 155.667 491Z" fill="#2F3538"/>
<path fill-rule="evenodd" clip-rule="evenodd" d="M0.111328 0H77.8891C120.845 0 155.667 31.3401 155.667 70V140H0.111328V0Z" fill="#F6F6F6"/>
<path fill-rule="evenodd" clip-rule="evenodd" d="M0.111328 421H77.8891C120.845 421 155.667 452.34 155.667 491V561H0.111328V421Z" fill="#F6F6F6"/>
<path fill-rule="evenodd" clip-rule="evenodd" d="M79.0004 280C121.956 280 156.778 311.34 156.778 350V420H1.22266V350C1.22265 311.34 36.045 280 79.0004 280Z" fill="#CEEAF7"/>
<path fill-rule="evenodd" clip-rule="evenodd" d="M79.0004 701C121.956 701 156.778 732.34 156.778 771V841H1.22266V771C1.22265 732.34 36.045 701 79.0004 701Z" fill="#CEEAF7"/>
<path fill-rule="evenodd" clip-rule="evenodd" d="M234.556 280H312.333V350C312.333 388.66 277.511 420 234.556 420H156.778V350C156.778 311.34 191.6 280 234.556 280Z" fill="#F6F6F6"/>
<path fill-rule="evenodd" clip-rule="evenodd" d="M234.556 701H312.333V771C312.333 809.66 277.511 841 234.556 841H156.778V771C156.778 732.34 191.6 701 234.556 701Z" fill="#F6F6F6"/>
<path fill-rule="evenodd" clip-rule="evenodd" d="M0.111328 140H155.667V210C155.667 248.66 120.845 280 77.8891 280H0.111328V140Z" fill="#2F3538"/>
<path fill-rule="evenodd" clip-rule="evenodd" d="M0.111328 561H155.667V631C155.667 669.66 120.845 701 77.8891 701H0.111328V561Z" fill="#2F3538"/>
<path fill-rule="evenodd" clip-rule="evenodd" d="M155.667 140H311.223V280H233.445C190.489 280 155.667 248.66 155.667 210V140Z" fill="#CEEAF7"/>
<path fill-rule="evenodd" clip-rule="evenodd" d="M155.667 561H311.223V701H233.445C190.489 701 155.667 669.66 155.667 631V561Z" fill="#CEEAF7"/>
</svg>
